# xmcd
#
# Track frame offsets:
#	150
#	13225
#	35500
#	50352
#	64200
#	77810
#	87970
#	103407
#	120745
#	136302
#	148785
#	162767
#	178690
#	192215
#	204675
#	224580
#
# Disc length: 3187 seconds
#
# Revision: 2
# Processed by: cddbd v1.5.2PL0 Copyright (c) Steve Scherf et al.
# Submitted via: audiograbber 1.83.01
#
DISCID=f20c7110
DTITLE=Billie Holiday - Billie Holiday
DYEAR=1900
DGENRE=bleus
TTITLE0=I gotta right to sing the bleus
TTITLE1=When your lover has gone
TTITLE2=She`s funny that way
TTITLE3=Onthe sunny side of the street
TTITLE4=April  in Paris
TTITLE5=Too marvellous for woords
TTITLE6=Loverman
TTITLE7=But not for me
TTITLE8=Yesterdays
TTITLE9=I can`t get started
TTITLE10=Strange fruit
TTITLE11=Cheek tk sheek
TTITLE12=My man
TTITLE13=How am I to know
TTITLE14=Speak low
TTITLE15=Fine and meelow
EXTD=
EXTT0=
EXTT1=
EXTT2=
EXTT3=
EXTT4=
EXTT5=
EXTT6=
EXTT7=
EXTT8=
EXTT9=
EXTT10=
EXTT11=
EXTT12=
EXTT13=
EXTT14=
EXTT15=
PLAYORDER=
